<?xml version="1.0" standalone="no"?>
<!DOCTYPE svg PUBLIC "-//W3C//DTD SVG 20010904//EN"
 "http://www.w3.org/TR/2001/REC-SVG-20010904/DTD/svg10.dtd">
<svg version="1.0" xmlns="http://www.w3.org/2000/svg"
 width="520.000000pt" height="520.000000pt" viewBox="0 0 520.000000 520.000000"
 preserveAspectRatio="xMidYMid meet">
<metadata>
Created by potrace 1.14, written by Peter Selinger 2001-2017
</metadata>
<g transform="translate(0.000000,520.000000) scale(0.100000,-0.100000)"
fill="#000000" stroke="none">
<path d="M3207 4884 c-1 -1 -29 -4 -62 -8 -33 -3 -71 -8 -85 -11 -14 -3 -41
-8 -60 -11 -61 -10 -202 -54 -275 -86 -215 -94 -433 -271 -572 -466 -33 -46
-50 -61 -62 -57 -60 23 -252 84 -281 89 -19 3 -72 12 -118 20 -76 12 -308 15
-357 3 -11 -2 -42 -8 -69 -12 -95 -13 -265 -72 -376 -129 -41 -22 -88 -46
-104 -54 -47 -24 -242 -158 -266 -182 -3 -3 -32 -27 -65 -55 -75 -62 -154
-136 -261 -245 -100 -101 -106 -119 -76 -224 31 -108 87 -301 115 -396 43
-144 189 -643 197 -675 5 -16 49 -169 100 -340 50 -170 111 -377 135 -460 24
-82 55 -190 70 -240 15 -49 53 -182 86 -295 33 -113 78 -266 100 -340 67 -228
80 -274 86 -303 3 -15 18 -41 33 -57 54 -58 116 -49 169 25 75 105 235 283
333 372 199 179 442 280 683 285 83 2 231 -8 244 -16 3 -2 27 -7 53 -10 26 -4
156 -33 287 -66 162 -40 250 -58 271 -54 22 5 65 43 163 147 318 337 439 434
640 515 213 86 494 88 787 7 30 -9 62 -17 70 -19 8 -2 62 -21 120 -41 134 -48
151 -50 188 -31 62 32 65 66 21 216 -17 58 -32 112 -35 120 -9 35 -36 126 -83
285 -27 94 -66 225 -85 293 -54 184 -101 344 -172 587 -36 121 -67 227 -69
235 -2 8 -29 101 -60 205 -122 416 -149 509 -215 735 -156 538 -171 585 -192
607 -33 36 -336 102 -588 129 -52 5 -358 13 -363 8z"/>
</g>
</svg>
